@startuml CPP_NEW_ML_Interface

' Layout hints to encourage a tree-like rendering
top to bottom direction
' skinparam linetype ortho
skinparam classAttributeIconSize 0
skinparam backgroundColor #FFFFFF
skinparam class {
    BackgroundColor<<abstract>> LightYellow
    BorderColor Black
    ArrowColor Black
}

enum "CouplingType" {
    STATIC
    FLEXIBLE
}

enum "ConfigCastMode" {
    Relaxed
    Strict
}

class "MLCoupling<In,Out>" {
    - parameters: std::vector<void*>
    - provider: std::unique_ptr<MLCouplingProvider<In,Out>>
    - application: std::unique_ptr<MLCouplingApplication<In,Out>>
    - behavior: std::unique_ptr<MLCouplingBehavior>
    - coupling_type: CouplingType
    - input_after_preprocessing: MLCouplingData<In>*
    - output_before_postprocessing: MLCouplingData<Out>*
    + MLCoupling(MLCouplingProvider<In,Out>*,
                 MLCouplingApplication<In,Out>*, MLCouplingBehavior* = nullptr)
    + MLCoupling(MLCouplingProvider<In,Out>*, MLCouplingApplication<In,Out>*,
                 MLCouplingBehavior*, CouplingType, MLCouplingData<In>*, MLCouplingData<Out>*)
    + ~MLCoupling()
    + ml_step()
    + is_flexible(): bool
    + create_from_config(...) <<static>>
    + create_from_config_string(...) <<static>>
    # set_parameters(std::vector<void*>)
}

class "MLCouplingProvider<In,Out>" <<abstract>> {
    + rank: int
    + MLCouplingProvider()
    + MLCouplingProvider(int)
    + set_rank(int)
    + inference(MLCouplingData<In>*, MLCouplingData<Out>*)
    + set_io_buffers(MLCouplingData<In>*, MLCouplingData<Out>*)
}

class "MLCouplingProviderFlexible<In,Out>" <<abstract>> {
    + MLCouplingProviderFlexible()
    + send_data(const std::vector<std::string>&, MLCouplingData<In>&)
    + inference(std::vector<std::string>, std::vector<std::string>)
    + receive_data(std::vector<std::string>, MLCouplingData<Out>&)
    + is_flexible(): bool
}

class "MLCouplingApplication<In,Out>" <<abstract>> {
    + input_data: MLCouplingData<In>
    + input_data_after_preprocessing: MLCouplingData<In>
    + output_data_before_postprocessing: MLCouplingData<Out>
    + output_data: MLCouplingData<Out>
    # normalization: std::unique_ptr<MLCouplingNormalization<In,Out>>
    + MLCouplingApplication(...)
    + step(bool, bool)
    + prepare_input()
    + finalize_output()
    + get_pre_post_buffers(): std::pair<MLCouplingData<In>*, MLCouplingData<Out>*>
    # preprocess(MLCouplingData<In>): MLCouplingData<In>
    # coupling_step(MLCouplingData<In>)
    # ml_step(MLCouplingData<In>): MLCouplingData<Out>
    # postprocess(MLCouplingData<Out>): MLCouplingData<Out>
}

class "MLCouplingNormalization<In,Out>" <<abstract>> {
    + normalize_input(MLCouplingData<In>)
    + denormalize_output(MLCouplingData<Out>)
    + print(std::ostream&)
    + ~MLCouplingNormalization()
}

class "MLCouplingMinMaxNormalization<In,Out>" {
    - input_min: In
    - input_max: In
    - output_min: Out
    - output_max: Out
    + MLCouplingMinMaxNormalization(...)
    + normalize_input(MLCouplingData<In>)
    + denormalize_output(MLCouplingData<Out>)
    + print(std::ostream&)
}

class "MLCouplingApplicationTurbulenceClosure<In,Out>" {
    # preprocess(MLCouplingData<In>): MLCouplingData<In>
    # coupling_step(MLCouplingData<In>)
    # ml_step(MLCouplingData<In>): MLCouplingData<Out>
    # postprocess(MLCouplingData<Out>): MLCouplingData<Out>
    - uniform_filtering()
    - downsampling()
    - compute_tau_ij()
}

class "MLCouplingApplicationFlowExtrapolator<In,Out>" {
    - cube_dimension: int
    - cube_overlap: int
    - input_sequence_length: int
    - forecast_window: int
    - n_ghost_layers: int
    + MLCouplingApplicationFlowExtrapolator(...)
    # preprocess(MLCouplingData<In>): MLCouplingData<In>
    # coupling_step(MLCouplingData<In>)
    # ml_step(MLCouplingData<In>): MLCouplingData<Out>
    # postprocess(MLCouplingData<Out>): MLCouplingData<Out>
}

class "MLCouplingBehavior" <<abstract>> {
    + should_perform_inference(): bool
    + time_step_delta(): int
    + should_send_data(): bool
}

class "MLCouplingBehaviorDefault" {
    + should_perform_inference(): bool
    + time_step_delta(): int
    + should_send_data(): bool
}

class "MLCouplingBehaviorPeriodic" {
    - step_count: long long
    - inference_interval: int
    - coupled_steps_before_inference: int
    - coupled_steps_stride: int
    - step_increment_after_inference: int
    - prohibit_inference: std::function<bool(int)>
    + MLCouplingBehaviorPeriodic(...)
    + should_perform_inference(): bool
    + time_step_delta(): int
    + should_send_data(): bool
}

class "MLCouplingProviderPhydll<In,Out>" {
    - model_file: std::string
    - backend: std::string
    - device: std::string
    + MLCouplingProviderPhydll(...)
    + inference(MLCouplingData<In>*, MLCouplingData<Out>*)
    + set_io_buffers(MLCouplingData<In>*, MLCouplingData<Out>*)
}

class "MLCouplingProviderAixelerator<In,Out>" {
    - model_file: std::string
    - batchsize: int
    - app_comm: MPI_Comm
    - enable_hybrid: bool
    - host_fraction: std::optional<float>
    + MLCouplingProviderAixelerator(...)
    + inference(MLCouplingData<In>*, MLCouplingData<Out>*)
    + set_io_buffers(MLCouplingData<In>*, MLCouplingData<Out>*)
}

class "MLCouplingProviderSmartsim<In,Out>" {
    - device: std::string
    - model_backend: std::string
    - model_name: std::string
    - num_gpus: int
    - first_gpu: int
    - batch_size: int
    - min_batch_size: int
    - min_batch_timeout: int
    + MLCouplingProviderSmartsim(...)
    + inference(MLCouplingData<In>*, MLCouplingData<Out>*)
    + set_io_buffers(MLCouplingData<In>*, MLCouplingData<Out>*)
}

class "MLCouplingTensor<T>" {
    - root: void*
    - dimensions: std::vector<int>
    - layout: MLCouplingMemoryLayout
    - ownership: MLCouplingOwnership
    + MLCouplingTensor()
    + MLCouplingTensor(...)
    + wrap_flat(...)
    + wrap_nested(...)
    + from_flat_copy(...)
    + dimensions(): const std::vector<int>&
    + dimensions_as_int64(): std::vector<int64_t>
    + layout(): MLCouplingMemoryLayout
    + ownership(): MLCouplingOwnership
    + root(): void*
    + numel(): size_t
    + rank(): size_t
    + empty(): bool
    + is_contiguous(): bool
    + is_nested(): bool
    + data_type(): MLCouplingDataType
    + at(const std::vector<int>&): T
    + set(const std::vector<int>&, const T&)
    + at_linear(size_t): T
    + set_linear(size_t, const T&)
    + flatten(MLCouplingMemoryLayout): MLCouplingTensor<T>
    + unflatten(MLCouplingMemoryLayout): MLCouplingTensor<T>
}

class "MLCouplingMatrix<T>" {
    + MLCouplingMatrix(...)
}

class "MLCouplingVector<T>" {
    + MLCouplingVector(...)
}

class "MLCouplingScalar<T>" {
    + MLCouplingScalar(...)
}

class "MLCouplingData<T>" {
    - tensors: std::vector<MLCouplingTensor<T>>
    + MLCouplingData()
    + MLCouplingData(std::vector<MLCouplingTensor<T>>)
    + add_tensor(const MLCouplingTensor<T>&)
    + size(): size_t
    + empty(): bool
    + operator[](size_t): MLCouplingTensor<T>&
    + flatten_all(MLCouplingMemoryLayout = MLCouplingMemLayoutContiguous): MLCouplingData<T>
    + deep_copy(): MLCouplingData<T>
    + get_flat_data(): std::vector<T>
}

enum "MLCouplingOwnership" {
    MLCouplingOwnershipExternal
    MLCouplingOwnershipOwned
}

enum "MLCouplingMemoryLayout" {
    MLCouplingMemLayoutInvalid
    MLCouplingMemLayoutNested
    MLCouplingMemLayoutContiguous
    MLCouplingMemLayoutFortranNested
    MLCouplingMemLayoutFortranContiguous
}

enum "MLCouplingDataType" {
    MLCouplingDataTypeInvalid
    MLCouplingDataTypeDouble
    MLCouplingDataTypeFloat
    MLCouplingDataTypeInt8
    MLCouplingDataTypeInt16
    MLCouplingDataTypeInt32
    MLCouplingDataTypeInt64
    MLCouplingDataTypeUint8
    MLCouplingDataTypeUint16
}

' Relationships
"MLCoupling<In,Out>" "1" ||--|| "1" "MLCouplingProvider<In,Out>" : owns
"MLCoupling<In,Out>" "1" ||--|| "1" "MLCouplingApplication<In,Out>" : owns
"MLCoupling<In,Out>" "1" ||--o| "0..1" "MLCouplingBehavior" : owns
"MLCoupling<In,Out>" ..> "CouplingType" : uses
"MLCouplingApplication<In,Out>" "1" ||--o| "0..1" "MLCouplingNormalization<In,Out>" : owns
"MLCouplingApplication<In,Out>" "1" o--|| "4" "MLCouplingData<T>" : uses
"MLCouplingNormalization<In,Out>" <|-- "MLCouplingMinMaxNormalization<In,Out>"

"MLCouplingApplication<In,Out>" <|-- "MLCouplingApplicationTurbulenceClosure<In,Out>"
"MLCouplingApplication<In,Out>" <|-- "MLCouplingApplicationFlowExtrapolator<In,Out>"
"MLCouplingBehavior" <|-- "MLCouplingBehaviorDefault"
"MLCouplingBehavior" <|-- "MLCouplingBehaviorPeriodic"

"MLCouplingProvider<In,Out>" <|-- "MLCouplingProviderFlexible<In,Out>"
"MLCouplingProviderFlexible<In,Out>" <|-- "MLCouplingProviderPhydll<In,Out>"
"MLCouplingProvider<In,Out>" <|-- "MLCouplingProviderAixelerator<In,Out>"
"MLCouplingProviderFlexible<In,Out>" <|-- "MLCouplingProviderSmartsim<In,Out>"

"MLCouplingData<T>" "1" o--|| "0..*" "MLCouplingTensor<T>" : owns
"MLCouplingTensor<T>" <|-- "MLCouplingMatrix<T>"
"MLCouplingTensor<T>" <|-- "MLCouplingVector<T>"
"MLCouplingTensor<T>" <|-- "MLCouplingScalar<T>"

@enduml
